<svg xmlns="http://www.w3.org/2000/svg" viewBox="0 0 128 128" role="img" aria-label="MD Planner icon">
  <defs>
    <linearGradient id="bg" x1="0%" y1="0%" x2="100%" y2="100%">
      <stop offset="0%" stop-color="#2563eb" />
      <stop offset="100%" stop-color="#1e3a8a" />
    </linearGradient>
    <linearGradient id="card" x1="0%" y1="0%" x2="0%" y2="100%">
      <stop offset="0%" stop-color="#ffffff" stop-opacity="0.85" />
      <stop offset="100%" stop-color="#e0f2fe" stop-opacity="0.95" />
    </linearGradient>
  </defs>
  <rect x="6" y="6" width="116" height="116" rx="18" fill="url(#bg)" />
  <g fill="none" stroke="#f8fafc" stroke-width="6" stroke-linecap="round" stroke-linejoin="round">
    <rect x="25" y="32" width="24" height="64" rx="6" />
    <rect x="52" y="32" width="24" height="64" rx="6" />
    <rect x="79" y="32" width="24" height="64" rx="6" />
  </g>
  <g fill="url(#card)" stroke="#0f172a" stroke-opacity="0.12" stroke-width="2">
    <rect x="30" y="40" width="16" height="12" rx="3" />
    <rect x="30" y="58" width="16" height="12" rx="3" />
    <rect x="57" y="40" width="16" height="12" rx="3" />
    <rect x="57" y="58" width="16" height="12" rx="3" />
    <rect x="57" y="76" width="16" height="12" rx="3" />
    <rect x="84" y="40" width="16" height="12" rx="3" />
  </g>
  <rect x="24" y="24" width="80" height="12" rx="6" fill="#f8fafc" fill-opacity="0.28" />
</svg>
